<svg width="182" height="143" viewBox="0 0 182 143" fill="none" xmlns="http://www.w3.org/2000/svg">
<path d="M1.5 96.5L8.5 90.5M8.5 90.5L21 68L40 32L55 2H61.5L91 44M8.5 90.5L14 90L19.5 90.5L23 93L25 96.5V101.754M25 101.754V120L21 123L17 125H8.5L4.5 123.5L2 120V114.5L3.5 111L6 109L12 107L17.5 106.5L20.5 105.5L22.5 103.5L25 101.754ZM25.5 120L28 125L33 125.5H34M91 44L112 2H123L165 63.5M91 44L64 92.5L59.5 90H51.5L47 93L44.5 97L44 101.5L44.5 105.5L47 108.5L50 111H60.5L64 109.5L66.5 106.5L67 102L66.5 97.5L65.5 95L64 93M38 90.5L56.5 55M50 111.5L47 113.714L45.5 116L44.5 118.5L45.5 121L48.5 124M48.5 124H66L69 126L70.5 128.5L71 131.5L70.5 134.5L68.5 138L64.5 140.5L57 141L49.5 140.5L46.5 140L44.5 138.5L43 137L42 135.5L41.5 133L42 130.5L43 128L45.5 126L48.5 124ZM86 87.5V99.5M86 127.5V99.5M86 99.5L91 93L94.5 90H105.5L108 92L109.5 94L109.582 99.5M110 127.5L109.582 99.5M109.582 99.5L116 92.5L120.5 90H128.5L132 92L134 96.5L134.5 127.5M96 88L115.5 51M124.5 88L132 72.5M125 86.5L122.5 89M130 90H159M179.5 97L175.5 92.5L171.5 90L165 89.5L159 90M159 90L154 95.5L151.5 100.5L150.5 107.5L151 114.5L152 117.5L154 120.5L156 122.5L158.5 124L160.5 125L163.5 126L167 126.5L170 126L172.5 125L174.5 123.5L176.5 122L178 120.5L179.5 117.5" stroke="#FF9D00" stroke-width="4"/>
</svg>
